<svg width="18" height="37" viewBox="0 0 18 37" fill="none" xmlns="http://www.w3.org/2000/svg">
<path d="M5.45669 0H12.5982C14.0052 0 15.2855 0.576719 16.2119 1.50315C17.1404 2.42958 17.715 3.70982 17.715 5.11889V20.3324C17.715 21.7394 17.1404 23.0197 16.2119 23.9461C15.2855 24.8746 14.0052 25.4493 12.5982 25.4493H5.45669C4.04966 25.4493 2.76943 24.8746 1.84299 23.9461C0.914518 23.0197 0.339844 21.7394 0.339844 20.3324V5.11889C0.339844 3.70982 0.914518 2.42958 1.84299 1.50315C2.76943 0.576719 4.04966 0 5.45669 0ZM12.5982 1.13708H5.45669C4.36256 1.13708 3.36864 1.58495 2.64672 2.30688C1.9248 3.0288 1.47692 4.02476 1.47692 5.11889V20.3324C1.47692 21.4265 1.9248 22.4205 2.64672 23.1424C3.36864 23.8643 4.36256 24.3122 5.45669 24.3122H12.5982C13.6923 24.3122 14.6862 23.8643 15.4082 23.1424C16.1301 22.4205 16.578 21.4265 16.578 20.3324V5.11889C16.578 4.02476 16.1301 3.0288 15.4082 2.30688C14.6862 1.58495 13.6923 1.13708 12.5982 1.13708Z" fill="#DADADA"/>
<path d="M9.59606 5.17206V10.068H8.45898V5.17206H9.59606Z" fill="#DADADA"/>
<path fill-rule="evenodd" clip-rule="evenodd" d="M8.46289 28.3963H9.59179V34.9222H8.46289V28.3963Z" fill="#DADADA"/>
<path fill-rule="evenodd" clip-rule="evenodd" d="M8.98017 37L6.16406 32.8607L7.00051 32.1327L8.55683 34.4661L9.40146 34.4375L10.9619 32.1776L11.8924 32.8382L8.98017 37Z" fill="#DADADA"/>
</svg>
